<?xml version="1.0" standalone="no"?><svg xmlns:xlink="http://www.w3.org/1999/xlink" xmlns="http://www.w3.org/2000/svg" viewBox="0 0 1000 769.2306833918626" preserveAspectRatio="xMaxYMax slice"><g transform="scale(1.1159057863062738)"><rect x="0" y="0" width="965.0662" height="689.3330000000001" fill="#ffffff"/><rect x="0" y="0" width="68.93" height="68.93" fill="#ffced8"/><circle cx="34.465" cy="34.465" r="34.465" fill="#fff9fa"/><rect x="68.93" y="0" width="68.93" height="68.93" fill="#ffe7dd"/><circle cx="103.39500000000001" cy="34.465" r="34.465" fill="#ffced7"/><rect x="137.87" y="0" width="68.93" height="68.93" fill="#fff1eb"/><circle cx="172.335" cy="34.465" r="34.465" fill="#fffaf7"/><rect x="206.8" y="0" width="68.93" height="68.93" fill="#ffe0e6"/><circle cx="241.26500000000001" cy="34.465" r="34.465" fill="#fff1f4"/><rect x="275.73" y="0" width="68.93" height="68.93" fill="#ffe6db"/><circle cx="310.19500000000005" cy="34.465" r="34.465" fill="#ffe4e9"/><rect x="344.67" y="0" width="68.93" height="68.93" fill="#fff9f6"/><circle cx="379.135" cy="34.465" r="34.465" fill="#fff6f2"/><rect x="413.6" y="0" width="68.93" height="68.93" fill="#ffe9ed"/><circle cx="448.06500000000005" cy="34.465" r="34.465" fill="#ffe6eb"/><rect x="482.53" y="0" width="68.93" height="68.93" fill="#fff9f6"/><circle cx="516.995" cy="34.465" r="34.465" fill="#ffd2db"/><rect x="551.47" y="0" width="68.93" height="68.93" fill="#fff5f0"/><circle cx="585.9350000000001" cy="34.465" r="34.465" fill="#ffe9df"/><rect x="620.4" y="0" width="68.93" height="68.93" fill="#ffeff2"/><circle cx="654.865" cy="34.465" r="34.465" fill="#fff1eb"/><rect x="689.33" y="0" width="68.93" height="68.93" fill="#fffbf9"/><circle cx="723.7950000000001" cy="34.465" r="34.465" fill="#fffdfc"/><rect x="758.27" y="0" width="68.93" height="68.93" fill="#fff5f0"/><circle cx="792.735" cy="34.465" r="34.465" fill="#fff1ea"/><rect x="827.2" y="0" width="68.93" height="68.93" fill="#ffcbd5"/><circle cx="861.6650000000001" cy="34.465" r="34.465" fill="#fff1f3"/><rect x="896.13" y="0" width="68.93" height="68.93" fill="#fff9fa"/><circle cx="930.595" cy="34.465" r="34.465" fill="#ffebe2"/><rect x="0" y="68.93" width="68.93" height="68.93" fill="#ffd4dc"/><circle cx="34.465" cy="103.39500000000001" r="34.465" fill="#fff7f3"/><rect x="68.93" y="68.93" width="68.93" height="68.93" fill="#ffe4e9"/><circle cx="103.39500000000001" cy="103.39500000000001" r="34.465" fill="#fffffe"/><rect x="137.87" y="68.93" width="68.93" height="68.93" fill="#ffdae1"/><circle cx="172.335" cy="103.39500000000001" r="34.465" fill="#ffecf0"/><rect x="206.8" y="68.93" width="68.93" height="68.93" fill="#ffefe8"/><circle cx="241.26500000000001" cy="103.39500000000001" r="34.465" fill="#ffced7"/><rect x="275.73" y="68.93" width="68.93" height="68.93" fill="#ffd5dd"/><circle cx="310.19500000000005" cy="103.39500000000001" r="34.465" fill="#fffaf7"/><rect x="344.67" y="68.93" width="68.93" height="68.93" fill="#ffd6de"/><circle cx="379.135" cy="103.39500000000001" r="34.465" fill="#ffffff"/><rect x="413.6" y="68.93" width="68.93" height="68.93" fill="#ffd3db"/><circle cx="448.06500000000005" cy="103.39500000000001" r="34.465" fill="#ffece3"/><rect x="482.53" y="68.93" width="68.93" height="68.93" fill="#ffe5d9"/><circle cx="516.995" cy="103.39500000000001" r="34.465" fill="#fffcfc"/><rect x="551.47" y="68.93" width="68.93" height="68.93" fill="#fffaf8"/><circle cx="585.9350000000001" cy="103.39500000000001" r="34.465" fill="#fff6f1"/><rect x="620.4" y="68.93" width="68.93" height="68.93" fill="#fff1f4"/><circle cx="654.865" cy="103.39500000000001" r="34.465" fill="#ffe8ed"/><rect x="689.33" y="68.93" width="68.93" height="68.93" fill="#ffd7de"/><circle cx="723.7950000000001" cy="103.39500000000001" r="34.465" fill="#fffafb"/><rect x="758.27" y="68.93" width="68.93" height="68.93" fill="#ffebef"/><circle cx="792.735" cy="103.39500000000001" r="34.465" fill="#fff7f8"/><rect x="827.2" y="68.93" width="68.93" height="68.93" fill="#ffeee6"/><circle cx="861.6650000000001" cy="103.39500000000001" r="34.465" fill="#ffced7"/><rect x="896.13" y="68.93" width="68.93" height="68.93" fill="#fff7f9"/><circle cx="930.595" cy="103.39500000000001" r="34.465" fill="#ffece3"/><rect x="0" y="137.87" width="68.93" height="68.93" fill="#ffd3db"/><circle cx="34.465" cy="172.335" r="34.465" fill="#fffaf8"/><rect x="68.93" y="137.87" width="68.93" height="68.93" fill="#ffe7dc"/><circle cx="103.39500000000001" cy="172.335" r="34.465" fill="#ffeae1"/><rect x="137.87" y="137.87" width="68.93" height="68.93" fill="#fffcfb"/><circle cx="172.335" cy="172.335" r="34.465" fill="#fff0ea"/><rect x="206.8" y="137.87" width="68.93" height="68.93" fill="#fff6f2"/><circle cx="241.26500000000001" cy="172.335" r="34.465" fill="#ffe6eb"/><rect x="275.73" y="137.87" width="68.93" height="68.93" fill="#ffe8de"/><circle cx="310.19500000000005" cy="172.335" r="34.465" fill="#ffcbd5"/><rect x="344.67" y="137.87" width="68.93" height="68.93" fill="#fff4ef"/><circle cx="379.135" cy="172.335" r="34.465" fill="#ffe7eb"/><rect x="413.6" y="137.87" width="68.93" height="68.93" fill="#fff7f3"/><circle cx="448.06500000000005" cy="172.335" r="34.465" fill="#ffffff"/><rect x="482.53" y="137.87" width="68.93" height="68.93" fill="#fff1ea"/><circle cx="516.995" cy="172.335" r="34.465" fill="#fffbf9"/><rect x="551.47" y="137.87" width="68.93" height="68.93" fill="#fff6f8"/><circle cx="585.9350000000001" cy="172.335" r="34.465" fill="#fff2eb"/><rect x="620.4" y="137.87" width="68.93" height="68.93" fill="#ffe6eb"/><circle cx="654.865" cy="172.335" r="34.465" fill="#ffd7de"/><rect x="689.33" y="137.87" width="68.93" height="68.93" fill="#fff7f4"/><circle cx="723.7950000000001" cy="172.335" r="34.465" fill="#fffcfb"/><rect x="758.27" y="137.87" width="68.93" height="68.93" fill="#ffe2e8"/><circle cx="792.735" cy="172.335" r="34.465" fill="#fff1ea"/><rect x="827.2" y="137.87" width="68.93" height="68.93" fill="#fff7f4"/><circle cx="861.6650000000001" cy="172.335" r="34.465" fill="#ffe4e9"/><rect x="896.13" y="137.87" width="68.93" height="68.93" fill="#fff1f3"/><circle cx="930.595" cy="172.335" r="34.465" fill="#ffd3db"/><rect x="0" y="206.8" width="68.93" height="68.93" fill="#fff3ee"/><circle cx="34.465" cy="241.26500000000001" r="34.465" fill="#fff0f3"/><rect x="68.93" y="206.8" width="68.93" height="68.93" fill="#ffd8df"/><circle cx="103.39500000000001" cy="241.26500000000001" r="34.465" fill="#ffede5"/><rect x="137.87" y="206.8" width="68.93" height="68.93" fill="#fffdfc"/><circle cx="172.335" cy="241.26500000000001" r="34.465" fill="#fff1eb"/><rect x="206.8" y="206.8" width="68.93" height="68.93" fill="#fff9fa"/><circle cx="241.26500000000001" cy="241.26500000000001" r="34.465" fill="#fff9f6"/><rect x="275.73" y="206.8" width="68.93" height="68.93" fill="#ffd7de"/><circle cx="310.19500000000005" cy="241.26500000000001" r="34.465" fill="#ffdde3"/><rect x="344.67" y="206.8" width="68.93" height="68.93" fill="#fffbfc"/><circle cx="379.135" cy="241.26500000000001" r="34.465" fill="#fff3ed"/><rect x="413.6" y="206.8" width="68.93" height="68.93" fill="#ffdee5"/><circle cx="448.06500000000005" cy="241.26500000000001" r="34.465" fill="#ffecf0"/><rect x="482.53" y="206.8" width="68.93" height="68.93" fill="#fffefe"/><circle cx="516.995" cy="241.26500000000001" r="34.465" fill="#fffcfb"/><rect x="551.47" y="206.8" width="68.93" height="68.93" fill="#fff8f5"/><circle cx="585.9350000000001" cy="241.26500000000001" r="34.465" fill="#ffe2e8"/><rect x="620.4" y="206.8" width="68.93" height="68.93" fill="#fff2ec"/><circle cx="654.865" cy="241.26500000000001" r="34.465" fill="#fff7f9"/><rect x="689.33" y="206.8" width="68.93" height="68.93" fill="#ffffff"/><circle cx="723.7950000000001" cy="241.26500000000001" r="34.465" fill="#fff5f1"/><rect x="758.27" y="206.8" width="68.93" height="68.93" fill="#ffffff"/><circle cx="792.735" cy="241.26500000000001" r="34.465" fill="#fffcfd"/><rect x="827.2" y="206.8" width="68.93" height="68.93" fill="#ffffff"/><circle cx="861.6650000000001" cy="241.26500000000001" r="34.465" fill="#ffdae1"/><rect x="896.13" y="206.8" width="68.93" height="68.93" fill="#fffdfd"/><circle cx="930.595" cy="241.26500000000001" r="34.465" fill="#fffdfc"/><rect x="0" y="275.73" width="68.93" height="68.93" fill="#ffcbd5"/><circle cx="34.465" cy="310.19500000000005" r="34.465" fill="#ffd8e0"/><rect x="68.93" y="275.73" width="68.93" height="68.93" fill="#fffbfa"/><circle cx="103.39500000000001" cy="310.19500000000005" r="34.465" fill="#ffe6eb"/><rect x="137.87" y="275.73" width="68.93" height="68.93" fill="#fff3f5"/><circle cx="172.335" cy="310.19500000000005" r="34.465" fill="#ffe9df"/><rect x="206.8" y="275.73" width="68.93" height="68.93" fill="#ffe3e8"/><circle cx="241.26500000000001" cy="310.19500000000005" r="34.465" fill="#fffefe"/><rect x="275.73" y="275.73" width="68.93" height="68.93" fill="#ffede5"/><circle cx="310.19500000000005" cy="310.19500000000005" r="34.465" fill="#fff1eb"/><rect x="344.67" y="275.73" width="68.93" height="68.93" fill="#ffefe8"/><circle cx="379.135" cy="310.19500000000005" r="34.465" fill="#ffece4"/><rect x="413.6" y="275.73" width="68.93" height="68.93" fill="#ffebe2"/><circle cx="448.06500000000005" cy="310.19500000000005" r="34.465" fill="#ffe8ed"/><rect x="482.53" y="275.73" width="68.93" height="68.93" fill="#ffdee4"/><circle cx="516.995" cy="310.19500000000005" r="34.465" fill="#ffe9ed"/><rect x="551.47" y="275.73" width="68.93" height="68.93" fill="#ffe8de"/><circle cx="585.9350000000001" cy="310.19500000000005" r="34.465" fill="#fff6f2"/><rect x="620.4" y="275.73" width="68.93" height="68.93" fill="#fffafb"/><circle cx="654.865" cy="310.19500000000005" r="34.465" fill="#ffe9ed"/><rect x="689.33" y="275.73" width="68.93" height="68.93" fill="#ffd0d9"/><circle cx="723.7950000000001" cy="310.19500000000005" r="34.465" fill="#ffe5da"/><rect x="758.27" y="275.73" width="68.93" height="68.93" fill="#ffdbe2"/><circle cx="792.735" cy="310.19500000000005" r="34.465" fill="#ffebe2"/><rect x="827.2" y="275.73" width="68.93" height="68.93" fill="#ffdde3"/><circle cx="861.6650000000001" cy="310.19500000000005" r="34.465" fill="#ffeee6"/><rect x="896.13" y="275.73" width="68.93" height="68.93" fill="#fff8f9"/><circle cx="930.595" cy="310.19500000000005" r="34.465" fill="#ffe1e7"/><rect x="0" y="344.67" width="68.93" height="68.93" fill="#fffdfc"/><circle cx="34.465" cy="379.135" r="34.465" fill="#fff2ec"/><rect x="68.93" y="344.67" width="68.93" height="68.93" fill="#fffaf8"/><circle cx="103.39500000000001" cy="379.135" r="34.465" fill="#fff6f7"/><rect x="137.87" y="344.67" width="68.93" height="68.93" fill="#ffefe7"/><circle cx="172.335" cy="379.135" r="34.465" fill="#ffeef2"/><rect x="206.8" y="344.67" width="68.93" height="68.93" fill="#ffe4e9"/><circle cx="241.26500000000001" cy="379.135" r="34.465" fill="#ffece4"/><rect x="275.73" y="344.67" width="68.93" height="68.93" fill="#ffd1da"/><circle cx="310.19500000000005" cy="379.135" r="34.465" fill="#fffefe"/><rect x="344.67" y="344.67" width="68.93" height="68.93" fill="#ffe4e9"/><circle cx="379.135" cy="379.135" r="34.465" fill="#ffeee6"/><rect x="413.6" y="344.67" width="68.93" height="68.93" fill="#ffe9df"/><circle cx="448.06500000000005" cy="379.135" r="34.465" fill="#fff9f7"/><rect x="482.53" y="344.67" width="68.93" height="68.93" fill="#ffdce2"/><circle cx="516.995" cy="379.135" r="34.465" fill="#ffe2e7"/><rect x="551.47" y="344.67" width="68.93" height="68.93" fill="#ffdfe5"/><circle cx="585.9350000000001" cy="379.135" r="34.465" fill="#ffd4dc"/><rect x="620.4" y="344.67" width="68.93" height="68.93" fill="#fff9fa"/><circle cx="654.865" cy="379.135" r="34.465" fill="#fff4ee"/><rect x="689.33" y="344.67" width="68.93" height="68.93" fill="#fff9fa"/><circle cx="723.7950000000001" cy="379.135" r="34.465" fill="#fff3ed"/><rect x="758.27" y="344.67" width="68.93" height="68.93" fill="#ffe0e5"/><circle cx="792.735" cy="379.135" r="34.465" fill="#ffd6de"/><rect x="827.2" y="344.67" width="68.93" height="68.93" fill="#fff0f3"/><circle cx="861.6650000000001" cy="379.135" r="34.465" fill="#fff7f8"/><rect x="896.13" y="344.67" width="68.93" height="68.93" fill="#ffe6da"/><circle cx="930.595" cy="379.135" r="34.465" fill="#ffeee6"/><rect x="0" y="413.6" width="68.93" height="68.93" fill="#ffe8ec"/><circle cx="34.465" cy="448.06500000000005" r="34.465" fill="#ffd3dc"/><rect x="68.93" y="413.6" width="68.93" height="68.93" fill="#ffece3"/><circle cx="103.39500000000001" cy="448.06500000000005" r="34.465" fill="#ffd4dc"/><rect x="137.87" y="413.6" width="68.93" height="68.93" fill="#ffe8ec"/><circle cx="172.335" cy="448.06500000000005" r="34.465" fill="#ffd0d9"/><rect x="206.8" y="413.6" width="68.93" height="68.93" fill="#ffe8dd"/><circle cx="241.26500000000001" cy="448.06500000000005" r="34.465" fill="#ffd2db"/><rect x="275.73" y="413.6" width="68.93" height="68.93" fill="#ffe5ea"/><circle cx="310.19500000000005" cy="448.06500000000005" r="34.465" fill="#ffdfe5"/><rect x="344.67" y="413.6" width="68.93" height="68.93" fill="#ffe4e9"/><circle cx="379.135" cy="448.06500000000005" r="34.465" fill="#ffd9e0"/><rect x="413.6" y="413.6" width="68.93" height="68.93" fill="#ffe8de"/><circle cx="448.06500000000005" cy="448.06500000000005" r="34.465" fill="#ffede5"/><rect x="482.53" y="413.6" width="68.93" height="68.93" fill="#fff9f6"/><circle cx="516.995" cy="448.06500000000005" r="34.465" fill="#ffebe2"/><rect x="551.47" y="413.6" width="68.93" height="68.93" fill="#ffe3e8"/><circle cx="585.9350000000001" cy="448.06500000000005" r="34.465" fill="#ffcdd6"/><rect x="620.4" y="413.6" width="68.93" height="68.93" fill="#fff8f4"/><circle cx="654.865" cy="448.06500000000005" r="34.465" fill="#fff4f6"/><rect x="689.33" y="413.6" width="68.93" height="68.93" fill="#ffced7"/><circle cx="723.7950000000001" cy="448.06500000000005" r="34.465" fill="#fffdfc"/><rect x="758.27" y="413.6" width="68.93" height="68.93" fill="#ffe7dc"/><circle cx="792.735" cy="448.06500000000005" r="34.465" fill="#ffe7dc"/><rect x="827.2" y="413.6" width="68.93" height="68.93" fill="#fff6f2"/><circle cx="861.6650000000001" cy="448.06500000000005" r="34.465" fill="#ffcbd4"/><rect x="896.13" y="413.6" width="68.93" height="68.93" fill="#fffdfe"/><circle cx="930.595" cy="448.06500000000005" r="34.465" fill="#ffe7dc"/><rect x="0" y="482.53" width="68.93" height="68.93" fill="#ffe8de"/><circle cx="34.465" cy="516.995" r="34.465" fill="#ffe9de"/><rect x="68.93" y="482.53" width="68.93" height="68.93" fill="#ffd2da"/><circle cx="103.39500000000001" cy="516.995" r="34.465" fill="#ffe7eb"/><rect x="137.87" y="482.53" width="68.93" height="68.93" fill="#ffdce3"/><circle cx="172.335" cy="516.995" r="34.465" fill="#fffefe"/><rect x="206.8" y="482.53" width="68.93" height="68.93" fill="#ffe9df"/><circle cx="241.26500000000001" cy="516.995" r="34.465" fill="#ffe9de"/><rect x="275.73" y="482.53" width="68.93" height="68.93" fill="#ffeef1"/><circle cx="310.19500000000005" cy="516.995" r="34.465" fill="#ffeef1"/><rect x="344.67" y="482.53" width="68.93" height="68.93" fill="#fff4f6"/><circle cx="379.135" cy="516.995" r="34.465" fill="#fff4ee"/><rect x="413.6" y="482.53" width="68.93" height="68.93" fill="#ffdce3"/><circle cx="448.06500000000005" cy="516.995" r="34.465" fill="#fff5f7"/><rect x="482.53" y="482.53" width="68.93" height="68.93" fill="#ffccd6"/><circle cx="516.995" cy="516.995" r="34.465" fill="#ffecf0"/><rect x="551.47" y="482.53" width="68.93" height="68.93" fill="#ffebe1"/><circle cx="585.9350000000001" cy="516.995" r="34.465" fill="#ffe9df"/><rect x="620.4" y="482.53" width="68.93" height="68.93" fill="#fff7f8"/><circle cx="654.865" cy="516.995" r="34.465" fill="#ffece3"/><rect x="689.33" y="482.53" width="68.93" height="68.93" fill="#ffdfe5"/><circle cx="723.7950000000001" cy="516.995" r="34.465" fill="#fff8f9"/><rect x="758.27" y="482.53" width="68.93" height="68.93" fill="#ffece3"/><circle cx="792.735" cy="516.995" r="34.465" fill="#ffeee6"/><rect x="827.2" y="482.53" width="68.93" height="68.93" fill="#ffece3"/><circle cx="861.6650000000001" cy="516.995" r="34.465" fill="#fffbfc"/><rect x="896.13" y="482.53" width="68.93" height="68.93" fill="#ffd0d9"/><circle cx="930.595" cy="516.995" r="34.465" fill="#ffd9e0"/><rect x="0" y="551.47" width="68.93" height="68.93" fill="#ffeef2"/><circle cx="34.465" cy="585.9350000000001" r="34.465" fill="#fffefe"/><rect x="68.93" y="551.47" width="68.93" height="68.93" fill="#fff7f3"/><circle cx="103.39500000000001" cy="585.9350000000001" r="34.465" fill="#ffcad4"/><rect x="137.87" y="551.47" width="68.93" height="68.93" fill="#ffe0e6"/><circle cx="172.335" cy="585.9350000000001" r="34.465" fill="#ffeae0"/><rect x="206.8" y="551.47" width="68.93" height="68.93" fill="#ffd9e0"/><circle cx="241.26500000000001" cy="585.9350000000001" r="34.465" fill="#fff3ed"/><rect x="275.73" y="551.47" width="68.93" height="68.93" fill="#fffafb"/><circle cx="310.19500000000005" cy="585.9350000000001" r="34.465" fill="#ffe1e7"/><rect x="344.67" y="551.47" width="68.93" height="68.93" fill="#ffece3"/><circle cx="379.135" cy="585.9350000000001" r="34.465" fill="#fffbfc"/><rect x="413.6" y="551.47" width="68.93" height="68.93" fill="#ffece4"/><circle cx="448.06500000000005" cy="585.9350000000001" r="34.465" fill="#fff9fa"/><rect x="482.53" y="551.47" width="68.93" height="68.93" fill="#ffece4"/><circle cx="516.995" cy="585.9350000000001" r="34.465" fill="#fff3ed"/><rect x="551.47" y="551.47" width="68.93" height="68.93" fill="#ffeee6"/><circle cx="585.9350000000001" cy="585.9350000000001" r="34.465" fill="#ffedf1"/><rect x="620.4" y="551.47" width="68.93" height="68.93" fill="#fff4f0"/><circle cx="654.865" cy="585.9350000000001" r="34.465" fill="#ffced7"/><rect x="689.33" y="551.47" width="68.93" height="68.93" fill="#ffe5d9"/><circle cx="723.7950000000001" cy="585.9350000000001" r="34.465" fill="#ffdae1"/><rect x="758.27" y="551.47" width="68.93" height="68.93" fill="#ffe4e9"/><circle cx="792.735" cy="585.9350000000001" r="34.465" fill="#ffebef"/><rect x="827.2" y="551.47" width="68.93" height="68.93" fill="#fffbf9"/><circle cx="861.6650000000001" cy="585.9350000000001" r="34.465" fill="#ffebe1"/><rect x="896.13" y="551.47" width="68.93" height="68.93" fill="#fffdfd"/><circle cx="930.595" cy="585.9350000000001" r="34.465" fill="#fff7f9"/><rect x="0" y="620.4" width="68.93" height="68.93" fill="#ffd5dd"/><circle cx="34.465" cy="654.865" r="34.465" fill="#fff4ef"/><rect x="68.93" y="620.4" width="68.93" height="68.93" fill="#ffe7db"/><circle cx="103.39500000000001" cy="654.865" r="34.465" fill="#fff1eb"/><rect x="137.87" y="620.4" width="68.93" height="68.93" fill="#ffdbe2"/><circle cx="172.335" cy="654.865" r="34.465" fill="#fff8f9"/><rect x="206.8" y="620.4" width="68.93" height="68.93" fill="#ffeee6"/><circle cx="241.26500000000001" cy="654.865" r="34.465" fill="#fff3f5"/><rect x="275.73" y="620.4" width="68.93" height="68.93" fill="#ffe1e7"/><circle cx="310.19500000000005" cy="654.865" r="34.465" fill="#ffccd6"/><rect x="344.67" y="620.4" width="68.93" height="68.93" fill="#fff2f4"/><circle cx="379.135" cy="654.865" r="34.465" fill="#fffaf8"/><rect x="413.6" y="620.4" width="68.93" height="68.93" fill="#fffdfc"/><circle cx="448.06500000000005" cy="654.865" r="34.465" fill="#ffe3e9"/><rect x="482.53" y="620.4" width="68.93" height="68.93" fill="#fff4f6"/><circle cx="516.995" cy="654.865" r="34.465" fill="#ffd2db"/><rect x="551.47" y="620.4" width="68.93" height="68.93" fill="#ffd4dc"/><circle cx="585.9350000000001" cy="654.865" r="34.465" fill="#ffd7de"/><rect x="620.4" y="620.4" width="68.93" height="68.93" fill="#fff2ec"/><circle cx="654.865" cy="654.865" r="34.465" fill="#ffeaee"/><rect x="689.33" y="620.4" width="68.93" height="68.93" fill="#ffe6da"/><circle cx="723.7950000000001" cy="654.865" r="34.465" fill="#fffaf7"/><rect x="758.27" y="620.4" width="68.93" height="68.93" fill="#fff7f3"/><circle cx="792.735" cy="654.865" r="34.465" fill="#fffcfd"/><rect x="827.2" y="620.4" width="68.93" height="68.93" fill="#fff3ee"/><circle cx="861.6650000000001" cy="654.865" r="34.465" fill="#fffcfa"/><rect x="896.13" y="620.4" width="68.93" height="68.93" fill="#fff7f3"/><circle cx="930.595" cy="654.865" r="34.465" fill="#ffdae1"/></g></svg>